# xmcd CD database file
#
# Track frame offsets:
#	150
#	16165
#	49962
#
# Disc length: 672 seconds
#
# Revision: 2
# Processed by: cddbd v1.5.1PL0 Copyright (c) Steve Scherf et al.
# Submitted via: CDex 1.50beta8
#
DISCID=1c029e03
DTITLE=矢井田瞳 - アンダンテ
DYEAR=1900
DGENRE=Rock
TTITLE0=アンダンテ
TTITLE1=Fast Car
TTITLE2=Cdrom
EXTD=
EXTT0=
EXTT1=
EXTT2=
PLAYORDER=
